<?xml version="1.0" encoding="UTF-8"?>
<svg version="1.1" xmlns="http://www.w3.org/2000/svg" width="750" height="293">
<path d="M0 0 C3.83404835 1.43234259 7.29062018 3.20394594 10.83984375 5.23828125 C11.97526611 5.88732422 13.11068848 6.53636719 14.28051758 7.20507812 C15.49978346 7.90708032 16.71877179 8.60956479 17.9375 9.3125 C18.86349503 9.84580933 18.86349503 9.84580933 19.80819702 10.38989258 C22.34742438 11.85261875 24.88615467 13.31618199 27.42274475 14.78347778 C31.43263721 17.10227545 35.45758375 19.39231177 39.4921875 21.66796875 C41.43269612 22.77793905 43.37282392 23.88857548 45.3125 25 C46.63399048 25.73536987 46.63399048 25.73536987 47.98217773 26.4855957 C55.32742738 30.74104623 61.19066843 35.79553422 64 44 C64.26006222 46.63318157 64.26006222 46.63318157 64.27415466 49.50724792 C64.28412979 50.60192383 64.29410492 51.69659973 64.30438232 52.82444763 C64.305047 54.01570755 64.30571167 55.20696747 64.30639648 56.43432617 C64.31472 57.69671112 64.32304352 58.95909607 64.33161926 60.25973511 C64.35352389 63.71662075 64.36235814 67.17341794 64.36744571 70.63036513 C64.37109527 72.79386862 64.37733855 74.95734917 64.3844471 77.12084389 C64.40893142 84.67961259 64.42199046 92.23831282 64.42553711 99.79711914 C64.42916754 106.82440368 64.45902972 113.85125018 64.50094169 120.87840098 C64.53573281 126.92533224 64.5510871 132.97211902 64.55178314 139.0191496 C64.55257323 142.62456976 64.56118602 146.2295438 64.58978081 149.83485985 C64.62101587 153.86311657 64.61186 157.89034255 64.59936523 161.91870117 C64.61419952 163.09983994 64.62903381 164.2809787 64.64431763 165.49790955 C64.56961416 173.98135754 62.87413042 181.10496901 56.73730469 187.27490234 C55.97321289 187.74879395 55.20912109 188.22268555 54.421875 188.7109375 C53.54982422 189.26233398 52.67777344 189.81373047 51.77929688 190.38183594 C50.86212891 190.91583008 49.94496094 191.44982422 49 192 C48.07767578 192.54172852 47.15535156 193.08345703 46.20507812 193.64160156 C43.23925868 195.33995099 40.24997964 196.98780878 37.25 198.625 C30.63634921 202.26702017 24.05191344 205.93228318 17.5859375 209.83203125 C16.58143555 210.43772949 15.57693359 211.04342773 14.54199219 211.66748047 C12.62857829 212.82853259 10.72016218 213.99786999 8.81738281 215.17626953 C7.96241211 215.69431152 7.10744141 216.21235352 6.2265625 216.74609375 C5.47971191 217.20685303 4.73286133 217.6676123 3.96337891 218.14233398 C2 219 2 219 -1 218 C-2.57128906 215.72875977 -2.57128906 215.72875977 -4.265625 212.69140625 C-4.90097168 211.56460449 -5.53631836 210.43780273 -6.19091797 209.27685547 C-6.87735454 208.03877905 -7.56371324 206.80065946 -8.25 205.5625 C-8.96268553 204.29255917 -9.67640358 203.02319728 -10.39111328 201.75439453 C-11.49542773 199.79349347 -12.59897742 197.83219873 -13.6991272 195.86895752 C-17.36173984 189.33431236 -21.11626603 182.85482516 -24.875 176.375 C-26.69672659 173.21505058 -28.51584975 170.05361879 -30.33398438 166.89160156 C-31.39935861 165.04249658 -32.46805077 163.19529674 -33.54101562 161.35058594 C-46.95817869 138.26544002 -53.84253694 113.45976728 -46.82324219 86.84545898 C-42.53697497 72.04788555 -34.76967232 59.43583807 -26.94384766 46.28662109 C-23.66347818 40.74023401 -20.46001823 35.14979498 -17.25 29.5625 C-11.55681637 19.67441635 -5.81192288 9.81873089 0 0 Z " fill="#F8BC13" transform="translate(686,37)"/>
<path d="M0 0 C1.02158203 0.5995752 2.04316406 1.19915039 3.09570312 1.81689453 C12.93630365 7.60395976 22.72967454 13.4701825 32.5 19.375 C31.91933397 23.18060234 30.83578266 25.901577 28.8671875 29.19921875 C28.04009277 30.59901978 28.04009277 30.59901978 27.19628906 32.02709961 C26.59526367 33.02878174 25.99423828 34.03046387 25.375 35.0625 C24.09560293 37.22351375 22.81698409 39.38498839 21.5390625 41.546875 C20.87422852 42.66771484 20.20939453 43.78855469 19.52441406 44.94335938 C16.22219626 50.54104069 12.98887366 56.17801954 9.75 61.8125 C8.4925192 63.98977494 7.23471484 66.16686305 5.9765625 68.34375 C3.85169024 72.0227023 1.74095817 75.70881533 -0.3515625 79.40625 C-5.10127124 87.74044149 -10.03253323 95.2351123 -16.5 102.375 C-17.04785156 103.0040625 -17.59570312 103.633125 -18.16015625 104.28125 C-31.15486004 118.32957842 -52.35767593 128.58250309 -71.43088913 129.46426582 C-73.67705576 129.49751443 -75.92108874 129.4987236 -78.16748047 129.48852539 C-79.01691727 129.48867142 -79.86635406 129.48881744 -80.74153137 129.4889679 C-83.53344323 129.48827437 -86.32528737 129.48050826 -89.1171875 129.47265625 C-91.05917321 129.47079008 -93.0011594 129.46936712 -94.94314575 129.46836853 C-100.04273794 129.46455902 -105.14230144 129.45474214 -110.24188232 129.44366455 C-115.45031344 129.43341673 -120.6587492 129.42886369 -125.8671875 129.42382812 C-136.07813757 129.41311843 -146.2890664 129.39606086 -156.5 129.375 C-156.59295482 120.90789091 -156.66389321 112.44099742 -156.70724869 103.97350311 C-156.72806427 100.04107045 -156.75627007 96.10898861 -156.80175781 92.17675781 C-156.845433 88.37714726 -156.86918239 84.57787273 -156.87950897 80.7780304 C-156.88686174 79.33322363 -156.90121968 77.88843386 -156.92292023 76.44377136 C-157.0597298 66.95276698 -156.5383711 60.40975425 -150.41015625 52.76953125 C-146.21820735 49.32031692 -141.65152427 46.73571532 -136.9375 44.0625 C-135.36258789 43.15661133 -135.36258789 43.15661133 -133.75585938 42.23242188 C-130.9241031 40.60595164 -128.08843755 38.98661749 -125.25018311 37.371521 C-122.34304451 35.71625154 -119.4393225 34.05500821 -116.53515625 32.39453125 C-113.00031098 30.37406091 -109.46488913 28.35461979 -105.92749023 26.33862305 C-98.42572352 22.06138506 -90.95206736 17.73835693 -83.5 13.375 C-75.10624548 8.46288328 -66.69010727 3.59158565 -58.24951172 -1.23950195 C-57.01416856 -1.94663053 -55.77913481 -2.65429997 -54.54443359 -3.36254883 C-52.81968895 -4.35152525 -51.09346326 -5.33791735 -49.3671875 -6.32421875 C-48.37831543 -6.88971436 -47.38944336 -7.45520996 -46.37060547 -8.0378418 C-28.28684981 -18.03635307 -16.56299688 -9.78345357 0 0 Z " fill="#74D0ED" transform="translate(647.5,13.625)"/>
<path d="M0 0 C11.04971584 -0.09328002 22.09933578 -0.16405623 33.14936733 -0.20724869 C38.28209423 -0.22799416 43.41454887 -0.25606911 48.54711914 -0.30175781 C53.51385683 -0.34568627 58.48033508 -0.36923473 63.44725227 -0.37950897 C65.32839089 -0.38681701 67.20951768 -0.40108369 69.09054375 -0.42292023 C96.47908734 -0.72780076 119.28243672 7.30928441 139.5625 26.1875 C147.83075553 34.85564455 153.81964084 45.80686931 159.625 56.1875 C160.30769758 57.39673597 160.99114498 58.60554888 161.67529297 59.81396484 C162.72982011 61.67680024 163.78390816 63.5398679 164.83572388 65.40423584 C168.55795054 72.00145106 172.33774959 78.56495821 176.125 85.125 C176.72779785 86.17196045 177.3305957 87.2189209 177.95166016 88.29760742 C178.81476807 89.79384644 178.81476807 89.79384644 179.6953125 91.3203125 C180.24219727 92.27196289 180.78908203 93.22361328 181.35253906 94.20410156 C182.46718814 96.09576743 183.61628225 97.96748606 184.79589844 99.81933594 C185.35567383 100.70137695 185.91544922 101.58341797 186.4921875 102.4921875 C186.99862793 103.26675293 187.50506836 104.04131836 188.02685547 104.83935547 C189 107 189 107 188.96118164 109.08520508 C187.57561341 111.84543155 185.81380447 112.64794953 183.12890625 114.14453125 C182.09161377 114.73210205 181.05432129 115.31967285 179.9855957 115.92504883 C178.85597412 116.54790771 177.72635254 117.1707666 176.5625 117.8125 C175.39536328 118.46707128 174.22894973 119.12293354 173.06323242 119.7800293 C171.24440256 120.80477389 169.42494679 121.8282489 167.60261536 122.84675598 C163.28224311 125.2632665 159.00008525 127.73841291 154.734375 130.25 C153.5618258 130.9378434 152.38921919 131.62558895 151.21655273 132.31323242 C148.98939336 133.62128723 146.76483185 134.93377793 144.54321289 136.2512207 C135.57130307 141.48276467 128.41965956 144.43377654 118 142 C113.73692845 140.20572808 109.83680101 137.93970402 105.875 135.5625 C104.77534912 134.9243335 103.67569824 134.28616699 102.54272461 133.62866211 C99.35046901 131.77097169 96.174015 129.88863555 93 128 C91.50483765 127.12340942 90.00886824 126.24819237 88.51171875 125.375 C85.84833442 123.8182491 83.19185278 122.25050993 80.5390625 120.67578125 C74.86671304 117.31854486 69.14989915 114.03845087 63.4375 110.75 C52.78381499 104.61361404 42.14857613 98.44684058 31.5390625 92.234375 C28.00234526 90.16404174 24.45642994 88.11166203 20.8984375 86.078125 C19.72776733 85.40390503 19.72776733 85.40390503 18.53344727 84.71606445 C17.11307806 83.89838021 15.68937602 83.0864411 14.26147461 82.28198242 C7.51140353 78.37605705 2.43120725 73.62853862 0 66 C-0.54184131 60.92263029 -0.46717913 55.87766095 -0.390625 50.78125 C-0.3831527 49.31295547 -0.37746445 47.84465089 -0.37347412 46.37634277 C-0.35829529 42.53580569 -0.31908244 38.69588609 -0.2746582 34.85559082 C-0.23353653 30.92724965 -0.21542728 26.99880746 -0.1953125 23.0703125 C-0.15257887 15.37992865 -0.08442401 7.69005127 0 0 Z " fill="#166DAB" transform="translate(491,150)"/>
<path d="M0 0 C5.71090712 -0.02301754 11.42165173 -0.04291271 17.13256836 -0.05493164 C19.07332913 -0.05994485 21.01408616 -0.06675712 22.95483398 -0.07543945 C25.75245084 -0.08763732 28.55001755 -0.09325855 31.34765625 -0.09765625 C32.63870018 -0.10539818 32.63870018 -0.10539818 33.95582581 -0.11329651 C38.74729665 -0.11373768 43.27500764 0.19438183 48 1 C48.11647085 8.38937559 48.20500427 15.77854939 48.25906086 23.16866112 C48.28502161 26.60121742 48.32016534 30.03314022 48.37719727 33.46533203 C48.44252573 37.42212013 48.46629239 41.37866259 48.48828125 45.3359375 C48.51408768 46.55300385 48.5398941 47.77007019 48.56648254 49.02401733 C48.56934417 57.81713875 47.10282095 64.87504471 40.73730469 71.27490234 C39.97321289 71.74879395 39.20912109 72.22268555 38.421875 72.7109375 C37.54982422 73.26233398 36.67777344 73.81373047 35.77929688 74.38183594 C34.86212891 74.91583008 33.94496094 75.44982422 33 76 C32.07767578 76.54172852 31.15535156 77.08345703 30.20507812 77.64160156 C27.23925868 79.33995099 24.24997964 80.98780878 21.25 82.625 C14.63634921 86.26702017 8.05191344 89.93228318 1.5859375 93.83203125 C0.58143555 94.43772949 -0.42306641 95.04342773 -1.45800781 95.66748047 C-3.37142171 96.82853259 -5.27983782 97.99786999 -7.18261719 99.17626953 C-8.03758789 99.69431152 -8.89255859 100.21235352 -9.7734375 100.74609375 C-10.52028809 101.20685303 -11.26713867 101.6676123 -12.03662109 102.14233398 C-14 103 -14 103 -17 102 C-18.57128906 99.72875977 -18.57128906 99.72875977 -20.265625 96.69140625 C-20.90097168 95.56460449 -21.53631836 94.43780273 -22.19091797 93.27685547 C-22.87735454 92.03877905 -23.56371324 90.80065946 -24.25 89.5625 C-24.96268553 88.29255917 -25.67640358 87.02319728 -26.39111328 85.75439453 C-27.49542773 83.79349347 -28.59897742 81.83219873 -29.6991272 79.86895752 C-33.36173984 73.33431236 -37.11626603 66.85482516 -40.875 60.375 C-42.69672659 57.21505058 -44.51584975 54.05361879 -46.33398438 50.89160156 C-47.39935861 49.04249658 -48.46805077 47.19529674 -49.54101562 45.35058594 C-56.29346938 33.73252781 -62.34475676 22.56616883 -64 9 C-60.90785387 8.28642782 -57.81559532 7.57341198 -54.72265625 6.86328125 C-52.33211927 6.30891748 -49.94384468 5.74465257 -47.55859375 5.16796875 C-36.1730966 2.43921324 -25.68248692 1.86147249 -14 2 C-13.49306328 6.01999019 -12.9956961 10.04110954 -12.5 14.0625 C-12.35691406 15.19623047 -12.21382812 16.32996094 -12.06640625 17.49804688 C-11.67888461 20.66280689 -11.32912312 23.82869219 -11 27 C-10.90887939 27.73444336 -10.81775879 28.46888672 -10.72387695 29.22558594 C-10.58203125 31.05078125 -10.58203125 31.05078125 -11 34 C-13.23046875 36.2578125 -13.23046875 36.2578125 -16.1875 38.125 C-17.18910156 38.79402344 -18.19070313 39.46304688 -19.22265625 40.15234375 C-20.13917969 40.76207031 -21.05570313 41.37179688 -22 42 C-25.73508385 44.97677309 -27.22604585 47.23781275 -28 52 C-27.38479492 51.94352295 -26.76958984 51.8870459 -26.13574219 51.82885742 C-23.34207339 51.58779679 -20.54691116 51.38727937 -17.75 51.1875 C-16.78191406 51.09791016 -15.81382812 51.00832031 -14.81640625 50.91601562 C-12.12461058 50.7396566 -9.67317478 50.62923043 -7 51 C-4.328125 53.48828125 -4.328125 53.48828125 -3 56 C-2.01 54.02 -1.02 52.04 0 50 C6.93 50 13.86 50 21 50 C18.91418513 43.74255539 17.95713536 41.84089963 12.42578125 38.95703125 C11.52339722 38.48100464 11.52339722 38.48100464 10.6027832 37.99536133 C9.84698975 37.60501709 9.09119629 37.21467285 8.3125 36.8125 C5.899375 35.554375 3.48625 34.29625 1 33 C0.67 22.11 0.34 11.22 0 0 Z " fill="#F8BC13" transform="translate(702,153)"/>
<path d="M0 0 C8.70672142 7.15752547 15.57539049 15.84679624 18 27 C12.85421741 31.47459355 9.75259771 32.53105949 2.94140625 32.17578125 C2.30074219 32.11777344 1.66007813 32.05976563 1 32 C0.79375 33.216875 0.5875 34.43375 0.375 35.6875 C-1.04243912 42.21188887 -4.07072972 48.04013248 -7 54 C-6.071875 54.28875 -5.14375 54.5775 -4.1875 54.875 C-1 56 -1 56 2 58 C2.1875 60.625 2.1875 60.625 2 63 C-2.30764815 61.43358249 -6.06171464 59.31663844 -10 57 C-10.37125 58.07701172 -10.37125 58.07701172 -10.75 59.17578125 C-12.13354395 62.30172586 -13.83088092 64.55186082 -16 67.1875 C-16.70125 68.04730469 -17.4025 68.90710938 -18.125 69.79296875 C-20 72 -20 72 -22 74 C-21.76273057 75.91288824 -21.76273057 75.91288824 -21 78 C-20.75121094 78.77859375 -20.50242187 79.5571875 -20.24609375 80.359375 C-19.97925781 81.14828125 -19.71242188 81.9371875 -19.4375 82.75 C-19.03337891 83.94882812 -19.03337891 83.94882812 -18.62109375 85.171875 C-18.41613281 85.77515625 -18.21117187 86.3784375 -18 87 C-15.55881209 85.73586702 -13.12216808 84.46407987 -10.6875 83.1875 C-9.99720703 82.83107422 -9.30691406 82.47464844 -8.59570312 82.10742188 C-7.92861328 81.75615234 -7.26152344 81.40488281 -6.57421875 81.04296875 C-5.65515747 80.56380005 -5.65515747 80.56380005 -4.7175293 80.07495117 C-2.91431687 79.03923301 -2.91431687 79.03923301 -1.40161133 77.37231445 C0 76 0 76 2 76 C2.3125 78.25 2.3125 78.25 2 81 C-2.98372444 85.45959342 -8.45700356 89.36326964 -15 91 C-19.71659417 89.90545746 -23.2775864 87.45080065 -27.25 84.75 C-28.37570306 84.0351803 -29.50460056 83.32536892 -30.63647461 82.62036133 C-32.96489074 81.16361405 -35.27685523 79.6849755 -37.57958984 78.18798828 C-42.79023112 74.82327835 -48.18507841 71.77533151 -53.5625 68.6875 C-55.52443724 67.54077125 -57.48540026 66.39237383 -59.4453125 65.2421875 C-63.03222096 63.14226085 -66.63031221 61.06447941 -70.2421875 59.0078125 C-71.04068115 58.54930908 -71.8391748 58.09080566 -72.66186523 57.6184082 C-74.13378476 56.77372442 -75.60963554 55.93583881 -77.09008789 55.10620117 C-81.8873807 52.33785791 -81.8873807 52.33785791 -83 49 C-83.991738 33.43734216 -81.10734751 19.74806882 -70.6875 7.75 C-51.27482001 -12.71980613 -23.62891603 -15.77237557 0 0 Z " fill="#F2F7FA" transform="translate(601,188)"/>
<path d="M0 0 C3.5138665 0.23589372 5.25654027 0.95090646 8.27075195 2.71044922 C9.20306641 3.24613525 10.13538086 3.78182129 11.09594727 4.33374023 C12.0753125 4.91438232 13.05467773 5.49502441 14.0637207 6.09326172 C15.0753125 6.68099365 16.0869043 7.26872559 17.12915039 7.87426758 C19.18877413 9.0728984 21.24527694 10.27690843 23.29858398 11.48632812 C25.99825607 13.06987978 28.71163308 14.62482295 31.43481445 16.16748047 C32.95725841 17.03803486 34.47941372 17.90909432 36.0012207 18.78076172 C36.69707275 19.17312012 37.3929248 19.56547852 38.10986328 19.96972656 C44.62927513 23.76197293 44.62927513 23.76197293 46.2512207 27.21826172 C46.149935 32.39830188 43.79026454 36.1860153 41.1262207 40.46826172 C40.22098329 41.96339299 39.31745437 43.45955951 38.4152832 44.95654297 C37.66553223 46.19525146 37.66553223 46.19525146 36.90063477 47.45898438 C33.69766856 52.81717325 30.60878757 58.2418875 27.5012207 63.65576172 C25.66531853 66.85262512 23.82741915 70.04786226 21.97192383 73.23339844 C20.83547609 75.20476762 19.72412053 77.19084141 18.63989258 79.19140625 C18.13522461 80.09874512 17.63055664 81.00608398 17.1105957 81.94091797 C16.67714844 82.74408447 16.24370117 83.54725098 15.79711914 84.37475586 C13.76851358 86.79389683 12.33353998 86.88978098 9.2512207 87.21826172 C8.26250977 87.40130859 7.27379883 87.58435547 6.25512695 87.77294922 C-6.60153012 88.96959608 -15.30940401 82.34452185 -25.62670898 75.41162109 C-27.77882677 73.97317871 -27.77882677 73.97317871 -30.7487793 74.21826172 C-31.4087793 75.20826172 -32.0687793 76.19826172 -32.7487793 77.21826172 C-34.0687793 76.55826172 -35.3887793 75.89826172 -36.7487793 75.21826172 C-36.0887793 73.23826172 -35.4287793 71.25826172 -34.7487793 69.21826172 C-36.0687793 68.55826172 -37.3887793 67.89826172 -38.7487793 67.21826172 C-39.42397227 62.04178226 -38.60207634 59.63762242 -35.6862793 55.28076172 C-33.38322724 51.69943487 -32.73435227 50.67271306 -32.8737793 46.28076172 C-33.01299805 45.64267578 -33.1522168 45.00458984 -33.2956543 44.34716797 C-34.56792401 38.36969389 -34.82612235 32.28982047 -31.6862793 26.90576172 C-27.92757899 21.72024599 -23.08001519 16.88437643 -16.7487793 15.21826172 C-13.9362793 15.09326172 -13.9362793 15.09326172 -11.7487793 15.21826172 C-11.48194336 14.49123047 -11.21510742 13.76419922 -10.94018555 13.01513672 C-9.75838096 10.24080201 -8.38391456 7.95423375 -6.6862793 5.46826172 C-6.15905273 4.68966797 -5.63182617 3.91107422 -5.08862305 3.10888672 C-3.05747214 0.2427729 -3.05747214 0.2427729 0 0 Z " fill="#76D0ED" transform="translate(568.748779296875,55.78173828125)"/>
<path d="M0 0 C3.18503324 1.36894517 4.97283014 2.80413579 7.0625 5.5625 C7.79146484 6.49255859 7.79146484 6.49255859 8.53515625 7.44140625 C12.86327505 15.00118708 13.49807379 22.4841989 13.6875 31.0625 C13.72166016 32.11888672 13.75582031 33.17527344 13.79101562 34.26367188 C13.87268515 36.84209556 13.93803629 39.42102751 14 42 C19.61 43.98 25.22 45.96 31 48 C31 46.02 31 44.04 31 42 C32 41 32 41 34.06640625 40.90234375 C35.30197266 40.91974609 35.30197266 40.91974609 36.5625 40.9375 C37.38878906 40.94652344 38.21507812 40.95554688 39.06640625 40.96484375 C39.70449219 40.97644531 40.34257813 40.98804688 41 41 C42.59138085 45.17737474 43.21278058 48.53160785 43 53 C43.6290625 53.10957031 44.258125 53.21914062 44.90625 53.33203125 C50.56623682 54.38049266 55.6694886 55.82831017 61 58 C61 62.95 61 67.9 61 73 C45.16 72.67 29.32 72.34 13 72 C13.33 73.32 13.66 74.64 14 76 C14.14774861 78.24240577 14.24744368 80.48816543 14.31640625 82.734375 C14.35830078 84.02988281 14.40019531 85.32539063 14.44335938 86.66015625 C14.48316671 88.02343476 14.52287906 89.38671606 14.5625 90.75 C14.60572274 92.12891875 14.64933821 93.50782526 14.69335938 94.88671875 C14.79943958 98.2577119 14.9014985 101.62877826 15 105 C15.50450684 105.25692627 16.00901367 105.51385254 16.52880859 105.77856445 C18.81506492 106.94855257 21.09500977 108.13035073 23.375 109.3125 C24.1690625 109.71662109 24.963125 110.12074219 25.78125 110.53710938 C26.54179688 110.93349609 27.30234375 111.32988281 28.0859375 111.73828125 C28.7876709 112.09962158 29.4894043 112.46096191 30.21240234 112.83325195 C32 114 32 114 34 117 C34 118.65 34 120.3 34 122 C23.605 122.495 23.605 122.495 13 123 C12.01 124.98 11.02 126.96 10 129 C8.29159719 127.36587557 7.06546953 126.13093906 6 124 C-4.395 124.495 -4.395 124.495 -15 125 C-16 121 -16 121 -14.48828125 117.98828125 C-11.66585562 114.59871201 -9.07341113 113.22256923 -5.1875 111.1875 C-2.16835139 109.37838425 0.57604694 107.61960496 1.51611328 104.02832031 C1.85310448 98.93575498 1.00609759 93.97827277 0 89 C-1.00260116 83.94020616 -1.10272509 79.13625449 -1 74 C-16.67566895 74.89677259 -31.65807625 77.00048041 -46.95068359 80.57275391 C-49 81 -49 81 -51 81 C-52.00109515 77.68929162 -52.10356134 74.69915231 -52.0625 71.25 C-52.05347656 70.26515625 -52.04445313 69.2803125 -52.03515625 68.265625 C-52.02355469 67.51796875 -52.01195312 66.7703125 -52 66 C-49.3773768 64.66180502 -46.75213401 63.3292849 -44.125 62 C-43.00544922 61.42765625 -43.00544922 61.42765625 -41.86328125 60.84375 C-40.79013672 60.30234375 -40.79013672 60.30234375 -39.6953125 59.75 C-39.03547363 59.41484375 -38.37563477 59.0796875 -37.69580078 58.734375 C-36 58 -36 58 -34 58 C-34 54.04 -34 50.08 -34 46 C-30.37 46 -26.74 46 -23 46 C-23 47.65 -23 49.3 -23 51 C-21.94039062 50.4946875 -20.88078125 49.989375 -19.7890625 49.46875 C-18.40113686 48.81229869 -17.01311081 48.15605967 -15.625 47.5 C-14.92632813 47.16613281 -14.22765625 46.83226562 -13.5078125 46.48828125 C-8.2265625 44 -8.2265625 44 -6 44 C-6.144375 42.92363281 -6.28875 41.84726563 -6.4375 40.73828125 C-10.00646598 13.17546759 -10.00646598 13.17546759 -1.75 1.9375 C-1.1725 1.298125 -0.595 0.65875 0 0 Z " fill="#FEFDFA" transform="translate(689,81)"/>
<path d="M0 0 C2 3 2 3 3 6 C3.763125 5.38125 4.52625 4.7625 5.3125 4.125 C10.39216896 0.78248198 16.56439839 -0.5482343 22.5703125 0.41015625 C27.13503775 1.78861289 29.72904109 3.47292574 33 7 C33.61746094 6.57847656 34.23492187 6.15695313 34.87109375 5.72265625 C41.40003754 1.49921468 46.60158838 -1.00131828 54.421875 0.44921875 C59.38672108 1.85268014 62.21418298 3.47304735 65 8 C66.48921132 10.97842264 66.17695367 14.04068494 66.2109375 17.30859375 C66.23900137 18.79232883 66.26766581 20.27605265 66.296875 21.75976562 C66.33817478 24.10131573 66.37505791 26.44265453 66.40136719 28.78442383 C66.42894755 31.04292279 66.47481066 33.3004631 66.5234375 35.55859375 C66.52669037 36.2586705 66.52994324 36.95874725 66.53329468 37.68003845 C66.62718629 41.54577205 66.62718629 41.54577205 68.39306641 44.89086914 C70.19083777 46.13171923 72.00760678 47.10685821 74 48 C74 48.66 74 49.32 74 50 C65.42 50 56.84 50 48 50 C48.33 49.01 48.66 48.02 49 47 C49.804375 46.79375 50.60875 46.5875 51.4375 46.375 C54.39000925 45.15561673 54.39000925 45.15561673 55.3125 41.4375 C57.03269931 31.29651552 57.53706859 17.79209515 54 8 C51.61683177 5.40018011 50.27382797 5.0636914 46.8125 4.890625 C42.66568769 5.08159662 40.60636631 5.43911117 37.5 8.3125 C33.90853015 14.74721682 34.77874691 21.87936679 34.75 29.0625 C34.729375 30.35478516 34.70875 31.64707031 34.6875 32.97851562 C34.68234375 34.21408203 34.6771875 35.44964844 34.671875 36.72265625 C34.6625293 37.85453369 34.65318359 38.98641113 34.64355469 40.15258789 C34.75763778 42.99727607 34.75763778 42.99727607 36.38378906 44.81811523 C38.17308974 46.12657514 39.97914535 47.09409964 42 48 C42 48.66 42 49.32 42 50 C33.42 50 24.84 50 16 50 C16.33 49.01 16.66 48.02 17 47 C18.65204456 46.29788106 20.31923769 45.63028587 22 45 C24.23940505 40.5211899 23.18584417 34.38140557 23.18530273 29.39697266 C23.18748476 27.14075741 23.20563167 24.88503466 23.22460938 22.62890625 C23.22754431 21.19271 23.22952844 19.75651144 23.23046875 18.3203125 C23.23457764 17.01336426 23.23868652 15.70641602 23.24291992 14.35986328 C23.01720923 11.2380235 22.71609267 9.56431184 21 7 C18.39592898 4.89671187 16.21817088 4.87974906 13 5.125 C10.14051777 5.58209195 9.02269323 5.98327867 6.625 7.75 C1.88059353 14.31917819 2.6679071 21.34270017 2.6875 29.125 C2.67138672 30.41277344 2.65527344 31.70054688 2.63867188 33.02734375 C2.63802734 34.25839844 2.63738281 35.48945312 2.63671875 36.7578125 C2.63373779 37.8833252 2.63075684 39.00883789 2.62768555 40.16845703 C2.7608466 42.99911521 2.7608466 42.99911521 4.38598633 44.81591797 C6.17381685 46.12751652 7.97860014 47.09385523 10 48 C10 48.66 10 49.32 10 50 C1.42 50 -7.16 50 -16 50 C-15.67 49.01 -15.34 48.02 -15 47 C-13.34795544 46.29788106 -11.68076231 45.63028587 -10 45 C-8.48171571 41.96343141 -8.83715179 38.80394732 -8.83203125 35.47265625 C-8.82870285 34.72793564 -8.82537445 33.98321503 -8.82194519 33.21592712 C-8.81687974 31.63980731 -8.81453675 30.06367677 -8.81469727 28.48754883 C-8.81251178 26.0755039 -8.79435532 23.66391703 -8.77539062 21.25195312 C-8.77245643 19.72135573 -8.77047181 18.19075617 -8.76953125 16.66015625 C-8.76234573 15.93820572 -8.75516022 15.21625519 -8.74775696 14.47242737 C-8.76471372 10.75756538 -8.88325504 9.17511744 -11 6 C-13.05925139 5.27617533 -13.05925139 5.27617533 -15 5 C-15 4.01 -15 3.02 -15 2 C-10.05 1.34 -5.1 0.68 0 0 Z " fill="#222F65" transform="translate(277,67)"/>
<path d="M0 0 C3.5138665 0.23589372 5.25654027 0.95090646 8.27075195 2.71044922 C9.20306641 3.24613525 10.13538086 3.78182129 11.09594727 4.33374023 C12.0753125 4.91438232 13.05467773 5.49502441 14.0637207 6.09326172 C15.0753125 6.68099365 16.0869043 7.26872559 17.12915039 7.87426758 C19.18877413 9.0728984 21.24527694 10.27690843 23.29858398 11.48632812 C25.99825607 13.06987978 28.71163308 14.62482295 31.43481445 16.16748047 C32.95725841 17.03803486 34.47941372 17.90909432 36.0012207 18.78076172 C36.69707275 19.17312012 37.3929248 19.56547852 38.10986328 19.96972656 C44.62927513 23.76197293 44.62927513 23.76197293 46.2512207 27.21826172 C46.149935 32.39830188 43.79026454 36.1860153 41.1262207 40.46826172 C40.22098329 41.96339299 39.31745437 43.45955951 38.4152832 44.95654297 C37.66553223 46.19525146 37.66553223 46.19525146 36.90063477 47.45898438 C33.69766856 52.81717325 30.60878757 58.2418875 27.5012207 63.65576172 C25.66531853 66.85262512 23.82741915 70.04786226 21.97192383 73.23339844 C20.83547609 75.20476762 19.72412053 77.19084141 18.63989258 79.19140625 C18.13522461 80.09874512 17.63055664 81.00608398 17.1105957 81.94091797 C16.67714844 82.74408447 16.24370117 83.54725098 15.79711914 84.37475586 C13.76851358 86.79389683 12.33353998 86.88978098 9.2512207 87.21826172 C8.26250977 87.40130859 7.27379883 87.58435547 6.25512695 87.77294922 C-6.60153012 88.96959608 -15.30940401 82.34452185 -25.62670898 75.41162109 C-27.77882677 73.97317871 -27.77882677 73.97317871 -30.7487793 74.21826172 C-31.4087793 75.20826172 -32.0687793 76.19826172 -32.7487793 77.21826172 C-34.0687793 76.55826172 -35.3887793 75.89826172 -36.7487793 75.21826172 C-36.0887793 73.23826172 -35.4287793 71.25826172 -34.7487793 69.21826172 C-36.0687793 68.55826172 -37.3887793 67.89826172 -38.7487793 67.21826172 C-39.42397227 62.04178226 -38.60207634 59.63762242 -35.6862793 55.28076172 C-33.38322724 51.69943487 -32.73435227 50.67271306 -32.8737793 46.28076172 C-33.01299805 45.64267578 -33.1522168 45.00458984 -33.2956543 44.34716797 C-34.56792401 38.36969389 -34.82612235 32.28982047 -31.6862793 26.90576172 C-27.92757899 21.72024599 -23.08001519 16.88437643 -16.7487793 15.21826172 C-13.9362793 15.09326172 -13.9362793 15.09326172 -11.7487793 15.21826172 C-11.48194336 14.49123047 -11.21510742 13.76419922 -10.94018555 13.01513672 C-9.75838096 10.24080201 -8.38391456 7.95423375 -6.6862793 5.46826172 C-6.15905273 4.68966797 -5.63182617 3.91107422 -5.08862305 3.10888672 C-3.05747214 0.2427729 -3.05747214 0.2427729 0 0 Z M-6.28173828 14.52636719 C-7.00598999 15.79311279 -7.00598999 15.79311279 -7.74487305 17.08544922 C-8.29771973 18.04338379 -8.85056641 19.00131836 -9.42016602 19.98828125 C-10.0029834 21.0129248 -10.58580078 22.03756836 -11.1862793 23.09326172 C-12.42604933 25.25536001 -13.66696259 27.4168031 -14.90893555 29.57763672 C-15.5407373 30.67785156 -16.17253906 31.77806641 -16.82348633 32.91162109 C-18.69601914 36.12764751 -20.61495062 39.30967197 -22.55737305 42.48388672 C-23.15686768 43.47018066 -23.7563623 44.45647461 -24.37402344 45.47265625 C-25.51809671 47.34959409 -26.67186404 49.22066609 -27.83642578 51.08496094 C-29.93080754 54.54512989 -31.57801854 57.51662098 -32.5378418 61.46044922 C-30.58490609 68.28605619 -22.70524624 71.60031244 -16.9128418 74.86474609 C-15.99245117 75.37328125 -15.07206055 75.88181641 -14.1237793 76.40576172 C-12.27724231 77.44059182 -10.43088236 78.47573789 -8.5847168 79.51123047 C-7.77566895 79.96006592 -6.96662109 80.40890137 -6.13305664 80.87133789 C-4.4471538 81.82373662 -2.79184436 82.83126713 -1.16137695 83.87573242 C1.2931101 85.47219454 1.2931101 85.47219454 4.6887207 85.40576172 C13.53447835 82.45717584 17.79360951 70.28141339 22.1262207 62.53076172 C23.13834073 60.727786 24.15217035 58.92580969 25.16851807 57.12521362 C25.84187963 55.93220627 26.51307529 54.73797377 27.18206787 53.54251099 C28.88443158 50.52475954 30.64385085 47.57252327 32.54125977 44.67285156 C32.9126004 44.09907272 33.28394104 43.52529388 33.66653442 42.93412781 C34.69350576 41.36156987 35.73956731 39.80152613 36.78686523 38.24243164 C38.58953607 34.51957675 38.88293517 32.30638996 38.2512207 28.21826172 C35.19174052 24.31430329 31.64744363 22.05983276 27.3293457 19.70263672 C26.22204102 19.09162109 25.11473633 18.48060547 23.97387695 17.85107422 C22.82790039 17.22974609 21.68192383 16.60841797 20.5012207 15.96826172 C18.21319813 14.71588372 15.92760971 13.45913857 13.6418457 12.20263672 C12.63154297 11.65317383 11.62124023 11.10371094 10.58032227 10.53759766 C8.2512207 9.21826172 8.2512207 9.21826172 7.2512207 8.21826172 C0.19711353 7.64005621 -2.21342416 8.4008947 -6.28173828 14.52636719 Z " fill="#F8FCFE" transform="translate(568.748779296875,55.78173828125)"/>
<path d="M0 0 C0.33 -0.99 0.66 -1.98 1 -3 C1.66 -3 2.32 -3 3 -3 C4.01973129 0.05919388 4.11533602 2.12418025 4.09765625 5.32421875 C4.09282227 6.86625977 4.09282227 6.86625977 4.08789062 8.43945312 C4.07532227 10.04723633 4.07532227 10.04723633 4.0625 11.6875 C4.05798828 12.77095703 4.05347656 13.85441406 4.04882812 14.97070312 C4.03703743 17.64719085 4.02058063 20.32356777 4 23 C2.515 22.505 2.515 22.505 1 22 C-0.17578125 19.5234375 -0.17578125 19.5234375 -1.3125 16.375 C-3.97452787 9.67210946 -6.79946624 5.08730462 -12.875 1.125 C-19.4530465 -1.24309674 -24.34094238 -1.57679901 -30.8359375 0.9453125 C-39.07306329 4.95979619 -42.70454984 11.65424696 -46 20 C-49.95452599 32.42089474 -49.20686608 46.07678548 -44 58 C-40.84630419 63.98041981 -36.50771734 67.64974897 -30.19921875 70.078125 C-22.9293471 72.17298423 -15.3753094 72.06208379 -8.4375 68.9375 C-3.97905512 66.36920489 -1.83230438 63.75041876 0 59 C0.29519531 58.26523438 0.59039062 57.53046875 0.89453125 56.7734375 C1.63372801 54.86300205 2.32178111 52.93292385 3 51 C3.66 51 4.32 51 5 51 C4.66521285 58.23140254 3.49317593 64.35852887 -1.65625 69.7265625 C-8.9360084 75.78308281 -17.86986997 77.59048572 -27.17578125 77.28515625 C-37.75062469 76.21743347 -47.47166489 73.11933455 -54.8125 65.1875 C-62.66908846 55.45769716 -65.04199477 44.3716205 -64 32 C-62.25175403 19.8357339 -57.93378462 10.64187544 -48.44140625 2.69140625 C-34.13695616 -7.21871678 -15.58199971 -5.61152401 0 0 Z " fill="#222F65" transform="translate(64,42)"/>
<path d="M0 0 C3.96516109 -0.07493036 7.93004014 -0.12896449 11.89575195 -0.16479492 C13.89744576 -0.18705458 15.89894275 -0.22520146 17.90039062 -0.26367188 C26.1498683 -0.3260105 33.82709126 -0.33832699 40.5 5 C43.43610277 8.9148037 43.64436994 13.27462046 43 18 C40.73641463 22.44333424 38.44966722 24.77516639 34 27 C34.680625 28.051875 35.36125 29.10375 36.0625 30.1875 C38.45000575 34.00888132 40.66053268 37.91737788 42.8125 41.875 C43.41707031 42.98617187 44.02164063 44.09734375 44.64453125 45.2421875 C46 48 46 48 46 50 C47.65 50.33 49.3 50.66 51 51 C51 51.66 51 52.32 51 53 C46.05 53 41.1 53 36 53 C35.55269531 51.92621094 35.10539062 50.85242188 34.64453125 49.74609375 C34.03430111 48.30970587 33.42359866 46.87351859 32.8125 45.4375 C32.52052734 44.73302734 32.22855469 44.02855469 31.92773438 43.30273438 C28.14819366 34.27321358 28.14819366 34.27321358 20.6875 28.5625 C19.800625 28.376875 18.91375 28.19125 18 28 C18.10991566 31.10489399 18.24053415 34.20857994 18.375 37.3125 C18.4059375 38.19357422 18.436875 39.07464844 18.46875 39.98242188 C18.50742187 40.82998047 18.54609375 41.67753906 18.5859375 42.55078125 C18.63306885 43.72120972 18.63306885 43.72120972 18.68115234 44.9152832 C18.89587889 47.30155768 18.89587889 47.30155768 21 50 C23.56282742 50.72965366 23.56282742 50.72965366 26 51 C26 51.66 26 52.32 26 53 C17.42 53 8.84 53 0 53 C0 52.34 0 51.68 0 51 C0.969375 50.71125 1.93875 50.4225 2.9375 50.125 C6.10664203 49.35785318 6.10664203 49.35785318 7 47 C7.13588362 43.97288781 7.21277463 40.96994738 7.23828125 37.94140625 C7.246353 37.04131332 7.25442474 36.1412204 7.26274109 35.21385193 C7.27658152 33.30819629 7.28730386 31.40251586 7.29516602 29.49682617 C7.31241146 26.57748821 7.35630085 23.65927318 7.40039062 20.74023438 C7.41051459 18.89063334 7.41903162 17.04102267 7.42578125 15.19140625 C7.44328934 14.31633926 7.46079742 13.44127228 7.47883606 12.53968811 C7.58839948 7.81520103 7.58839948 7.81520103 5.16088867 3.98803711 C2.89636977 2.90606757 2.89636977 2.90606757 0 2 C0 1.34 0 0.68 0 0 Z M18 2 C18 9.92 18 17.84 18 26 C24.68805981 26.64290512 24.68805981 26.64290512 28.3125 23.8125 C30.93377012 21.06931034 32.21433449 19.66643903 33 16 C32.81224669 10.74290746 31.85028451 7.64216102 28 4 C24.33965813 2.39860043 22.02927167 2 18 2 Z " fill="#222F65" transform="translate(345,180)"/>
<path d="M0 0 C5.61 0 11.22 0 17 0 C17.03738281 2.58972656 17.07476562 5.17945312 17.11328125 7.84765625 C17.15957486 10.37304836 17.21077988 12.89829685 17.26245117 15.42358398 C17.29557767 17.17023899 17.32364737 18.91699788 17.34643555 20.66381836 C17.38020881 23.1838787 17.43253347 25.70299752 17.48828125 28.22265625 C17.49467117 28.99585709 17.5010611 29.76905792 17.50764465 30.56568909 C17.64545798 35.71947272 18.58016203 39.42177781 21 44 C24.45739557 45.72869779 28.21975568 45.48966895 32 45 C34.87029869 43.20606332 36.49131638 42.01736724 38 39 C39.21896715 31.00899315 39.17465275 23.0689571 39 15 C38.99226563 13.58460937 38.99226563 13.58460937 38.984375 12.140625 C38.93629932 9.49730298 38.93629932 9.49730298 38 6 C35.09748698 3.83752779 35.09748698 3.83752779 32 3 C32 2.01 32 1.02 32 0 C37.61 0 43.22 0 49 0 C49.029729 1.78615723 49.029729 1.78615723 49.06005859 3.60839844 C49.13616995 8.02918532 49.22487894 12.44964543 49.31738281 16.87011719 C49.35564968 18.78281195 49.39050658 20.69557811 49.421875 22.60839844 C49.46757527 25.35898342 49.52556145 28.10907783 49.5859375 30.859375 C49.59748871 31.71368103 49.60903992 32.56798706 49.62094116 33.44818115 C49.64081085 34.24870911 49.66068054 35.04923706 49.68115234 35.87402344 C49.69447601 36.57573669 49.70779968 37.27744995 49.7215271 38.00042725 C50.05229333 40.3754919 50.72548883 41.97232687 52 44 C54.53770003 45.28254644 54.53770003 45.28254644 57 46 C57 46.66 57 47.32 57 48 C51.39 48.66 45.78 49.32 40 50 C39.67 48.35 39.34 46.7 39 45 C37.9275 45.639375 36.855 46.27875 35.75 46.9375 C30.37336513 50.14280156 25.16724714 50.5729706 19 50 C13.74426074 48.36296646 10.97920196 46.61827847 8 42 C7.48583984 38.57421875 7.48583984 38.57421875 7.4609375 34.6875 C7.44914459 33.99615967 7.43735168 33.30481934 7.42520142 32.5925293 C7.39006708 30.39478831 7.38078674 28.1979983 7.375 26 C7.35860636 23.80228833 7.33645967 21.60499615 7.30337524 19.4074707 C7.27488387 17.41371358 7.2646394 15.4197204 7.25537109 13.42578125 C7.00925283 10.12412595 6.56616643 7.90164168 5 5 C2.47627099 3.63921965 2.47627099 3.63921965 0 3 C0 2.01 0 1.02 0 0 Z " fill="#222F65" transform="translate(73,68)"/>
<path d="M0 0 C5.61 0 11.22 0 17 0 C17.04898437 2.58972656 17.09796875 5.17945313 17.1484375 7.84765625 C17.2025433 10.37302113 17.25981295 12.89829598 17.31738281 15.42358398 C17.35551913 17.17025973 17.39039802 18.91700991 17.421875 20.66381836 C17.46786087 23.18370046 17.52579747 25.7030769 17.5859375 28.22265625 C17.59748871 28.99585709 17.60903992 29.76905792 17.62094116 30.56568909 C17.75005983 35.37596475 18.49043288 39.42627645 20 44 C24.86182098 44.79749237 28.7681511 45.41794873 33.5 43.8125 C37.17841006 41.14565271 37.76085039 39.37159333 38.53125 34.953125 C39.06620683 30.44165571 39.18391563 26.03781747 39.1875 21.5 C39.20586914 20.27603516 39.20586914 20.27603516 39.22460938 19.02734375 C39.23678058 13.9722361 38.8101833 9.74329386 37 5 C34.48635244 3.17380913 34.48635244 3.17380913 32 2 C32 1.34 32 0.68 32 0 C37.61 0 43.22 0 49 0 C49.05607422 4.13595703 49.05607422 4.13595703 49.11328125 8.35546875 C49.15952457 11.03303857 49.21074799 13.71047015 49.26245117 16.38793945 C49.29565549 18.2452755 49.32370141 20.10271137 49.34643555 21.96020508 C49.38006442 24.63405798 49.43238374 27.30699993 49.48828125 29.98046875 C49.49467117 30.80773972 49.5010611 31.63501068 49.50764465 32.48735046 C49.62483759 37.10796005 49.98091014 40.26161991 53 44 C55.08533633 44.87822312 55.08533633 44.87822312 57 45 C56.67 45.99 56.34 46.98 56 48 C50.61509359 48.91657981 45.45769811 49.11138159 40 49 C40 47.35 40 45.7 40 44 C39.28650391 44.54140625 39.28650391 44.54140625 38.55859375 45.09375 C31.53422007 49.75079333 24.25453188 50.31672951 16 49 C12.01077037 46.86274567 9.57646028 45.25419709 8 41 C7.7806274 38.60175015 7.66793941 36.19296276 7.62109375 33.78515625 C7.60409927 33.09240097 7.5871048 32.39964569 7.56959534 31.68589783 C7.51663323 29.47819058 7.47627061 27.27049837 7.4375 25.0625 C7.39339894 22.85816993 7.34652225 20.65397605 7.29469299 18.44981384 C7.24839556 16.44722096 7.21076297 14.44443331 7.17358398 12.44165039 C7.0253693 9.50299717 6.67799851 6.85510808 6 4 C4.02 3.34 2.04 2.68 0 2 C0 1.34 0 0.68 0 0 Z " fill="#156DAB" transform="translate(368,126)"/>
<path d="M0 0 C4.46582323 2.27669419 8.77557394 5.39023195 11 10 C11.86809762 15.06516089 11.70141047 19.4058853 9.625 24.125 C2.61222587 31.80565738 -5.06064761 37.72386847 -14 43 C-14.71929688 43.43570313 -15.43859375 43.87140625 -16.1796875 44.3203125 C-20.6958042 47 -20.6958042 47 -23 47 C-23.97430332 15.3892699 -23.97430332 15.3892699 -15.625 5.0625 C-10.50200313 1.03728818 -6.72561261 -1.17830615 0 0 Z " fill="#F8FAFC" transform="translate(630,218)"/>
<path d="M0 0 C4.57516621 4.28582764 8.64306437 9.88165208 9.1796875 16.26953125 C9.32582115 24.90359456 8.32740634 30.6148035 2.4140625 37.1015625 C-3.41193851 42.50230796 -9.59655378 44.9937906 -17.5234375 45.3515625 C-25.78922253 45.01251333 -33.34030951 41.9311878 -39.0234375 35.8515625 C-44.13695094 28.60854876 -45.19741205 21.57251629 -44.0234375 12.8515625 C-41.91832321 4.95411511 -35.68924397 0.09593381 -28.9609375 -4.0234375 C-19.1488101 -7.78127352 -8.43905795 -6.22955914 0 0 Z M-30.34765625 5.01953125 C-33.77776249 12.39726853 -34.48748591 20.60604145 -32.29296875 28.46875 C-31.35711575 30.73771604 -30.30817867 32.7622785 -29.0234375 34.8515625 C-28.66121094 35.4496875 -28.29898438 36.0478125 -27.92578125 36.6640625 C-25.23900016 40.45287922 -22.44152578 41.98456614 -18.0078125 42.79296875 C-14.61226489 42.89323098 -12.75392205 41.7932404 -10.0234375 39.8515625 C-4.20242411 34.30129392 -2.0145424 27.38611366 -1.5859375 19.4140625 C-1.91939483 11.87792676 -4.3249784 4.97309253 -9.7734375 -0.3359375 C-13.13381807 -2.91700903 -15.80504523 -4.19843709 -20.07421875 -3.75390625 C-24.86389236 -2.26613188 -27.77799632 0.81256588 -30.34765625 5.01953125 Z " fill="#222F65" transform="translate(248.0234375,73.1484375)"/>
<path d="M0 0 C5.22940785 4.09296607 9.28800677 8.4730258 11 15 C11.78644531 22.76490308 11.79295455 29.58589905 7 36 C2.06806126 42.04284573 -2.86180968 45.49379935 -10.83203125 46.46875 C-20.21037759 46.54237784 -27.58678753 45.85919499 -34.83203125 39.35546875 C-40.40541436 33.34814827 -42.67509026 27.00586659 -42.40625 18.83984375 C-41.30100311 11.11374289 -37.19922086 5.19821094 -31.1640625 0.40625 C-21.47143417 -5.89220884 -9.9026357 -5.7671141 0 0 Z M-24.640625 2.703125 C-29.6183566 8.84071639 -31.5222375 14.93243743 -31.2421875 22.8671875 C-30.28227177 31.32063894 -27.25989575 37.22279501 -21 43 C-17.7232324 44.6383838 -14.52849077 44.64444406 -11 44 C-5.49572718 41.19802611 -2.63999001 36.53936519 -0.66015625 30.83984375 C1.40820506 21.94221847 0.84950247 12.87866384 -4 5 C-6.9438893 1.50724999 -9.7446211 -0.56446038 -14.0625 -2.0625 C-18.65140464 -1.96486373 -21.44271938 -0.6166056 -24.640625 2.703125 Z " fill="#156DAB" transform="translate(347,129)"/>
<path d="M0 0 C4.28666736 -0.07462728 8.57298207 -0.12882508 12.86010742 -0.16479492 C14.31590368 -0.17980313 15.77165532 -0.20021633 17.22729492 -0.22631836 C19.33002789 -0.26305676 21.43215885 -0.2798056 23.53515625 -0.29296875 C24.797229 -0.3086792 26.05930176 -0.32438965 27.35961914 -0.34057617 C32.3910132 0.13013637 36.14534409 1.69672828 40.3125 4.625 C42.82131878 8.15593014 43.64178062 11.70883034 44 16 C43.14818988 20.51459363 41.67241194 23.22087745 38 26 C31.31747739 28.90544461 24.16291293 28.17882446 17 28 C17.08730853 30.73064947 17.19422124 33.4581619 17.3125 36.1875 C17.33505859 36.95642578 17.35761719 37.72535156 17.38085938 38.51757812 C17.59712024 43.09837651 18.03843664 46.28352833 21 50 C23.08533633 50.87822312 23.08533633 50.87822312 25 51 C25 51.66 25 52.32 25 53 C16.75 53 8.5 53 0 53 C0 52.34 0 51.68 0 51 C2.97 50.505 2.97 50.505 6 50 C7.18455538 45.75581457 7.19882522 41.59801958 7.23828125 37.21875 C7.246353 36.36825073 7.25442474 35.51775146 7.26274109 34.64147949 C7.27654656 32.84613057 7.28728447 31.05075579 7.29516602 29.25537109 C7.3067225 27.41837891 7.32723177 25.58142124 7.35668945 23.74462891 C7.39926156 21.08993726 7.41551679 18.43624011 7.42578125 15.78125 C7.44328934 14.96136597 7.46079742 14.14148193 7.47883606 13.29675293 C7.46499109 9.66417498 7.35397203 7.47854124 5.16088867 4.51367188 C2.98547774 2.83666885 2.98547774 2.83666885 0 2 C0 1.34 0 0.68 0 0 Z M17 2 C17 9.59 17 17.18 17 25 C26.32888433 26.02137253 26.32888433 26.02137253 30.0625 22.625 C33.13183552 18.46654543 33.68405166 15.11138602 33 10 C31.27876957 6.55753914 30.00205044 4.59581377 26.6875 2.625 C23.32352689 1.73573426 23.32352689 1.73573426 17 2 Z " fill="#222F65" transform="translate(432,180)"/>
<path d="M0 0 C2.31319447 2.1604897 3.84997981 4.13822206 4.9375 7.125 C4.9375 9.435 4.9375 11.745 4.9375 14.125 C-5.6225 14.125 -16.1825 14.125 -27.0625 14.125 C-26.2534174 27.14899953 -26.2534174 27.14899953 -19.52734375 37.6328125 C-14.82006065 40.81551455 -9.55692928 40.88060063 -4.0625 40.125 C-0.20190346 38.64647367 0.69370127 37.55374949 2.75 33.9375 C3.141875 33.009375 3.53375 32.08125 3.9375 31.125 C4.9275 31.455 5.9175 31.785 6.9375 32.125 C5.03955565 37.21948221 3.30455797 40.65120389 -1.0625 44.125 C-7.88261903 46.98944999 -16.16846578 47.32078453 -23.25 45.0625 C-29.11472388 42.49215805 -33.78785835 38.54857323 -36.765625 32.88671875 C-38.1448075 28.88625868 -38.56412641 25.37124746 -38.5 21.1875 C-38.49097656 20.48310791 -38.48195313 19.77871582 -38.47265625 19.05297852 C-38.24293353 12.16688053 -36.90442354 8.0974503 -32.19140625 3.16796875 C-28.79574577 0.01623095 -25.61592727 -2.67672967 -21.0625 -3.875 C-20.19625 -4.1225 -19.33 -4.37 -18.4375 -4.625 C-11.74443936 -5.12078227 -5.29646089 -4.37678254 0 0 Z M-25.0625 4.125 C-26.0525 7.59 -26.0525 7.59 -27.0625 11.125 C-19.4725 11.125 -11.8825 11.125 -4.0625 11.125 C-5.17313246 3.91765046 -5.17313246 3.91765046 -9.875 -1.1875 C-16.50056884 -3.26982163 -20.94751677 -1.29447534 -25.0625 4.125 Z " fill="#222F65" transform="translate(461.0625,71.875)"/>
<path d="M0 0 C7.59 0 15.18 0 23 0 C23 0.66 23 1.32 23 2 C20.5 3.625 20.5 3.625 18 5 C19.36781375 12.01904426 21.50738951 18.4167292 24.125 25.0625 C24.49753906 26.02349609 24.87007813 26.98449219 25.25390625 27.97460938 C26.16355485 30.31870383 27.07898954 32.66035181 28 35 C29.29543103 31.95992315 30.58565977 28.91766448 31.875 25.875 C32.23980469 25.0190625 32.60460937 24.163125 32.98046875 23.28125 C37.44689044 13.93820137 37.44689044 13.93820137 37 4 C35.04836882 2.56362302 35.04836882 2.56362302 33 2 C33 1.34 33 0.68 33 0 C38.61 0 44.22 0 50 0 C49 3 49 3 46.79296875 4.88671875 C42.38171154 9.14297302 40.58963373 15.25302143 38.3125 20.8125 C37.79021072 22.06127187 37.2667579 23.30955769 36.7421875 24.55737305 C35.14570073 28.3651342 33.57132582 32.18180179 32 36 C30.59694265 39.40067021 29.19321785 42.80104646 27.78588867 46.19995117 C26.95085801 48.2211788 26.12127104 50.24466713 25.2980957 52.27075195 C19.85144062 65.53161606 19.85144062 65.53161606 16.1875 68.4375 C12.99254668 69.25905942 10.28317015 69.29314019 7 69 C4.5625 67.5 4.5625 67.5 3 66 C3.33 64.35 3.66 62.7 4 61 C8.29 61 12.58 61 17 61 C17.639375 59.7625 18.27875 58.525 18.9375 57.25 C19.29714844 56.55390625 19.65679687 55.8578125 20.02734375 55.140625 C21.65662958 51.5548875 22.26330335 49.94640167 21.171875 46.0234375 C19.47535521 41.67027957 17.75969195 37.32801721 16 33 C15.57509277 31.94022949 15.15018555 30.88045898 14.71240234 29.78857422 C13.30397742 26.28955725 11.87399012 22.80008105 10.4375 19.3125 C9.97891602 18.17796387 9.52033203 17.04342773 9.04785156 15.87451172 C6.66884605 10.18754757 4.68633643 6.02533419 0 2 C0 1.34 0 0.68 0 0 Z " fill="#156DAB" transform="translate(248,126)"/>
<path d="M0 0 C17.16 0 34.32 0 52 0 C53.44207941 2.88415883 53.09394887 5.41721528 53.0625 8.625 C53.05347656 9.81351563 53.04445313 11.00203125 53.03515625 12.2265625 C53.02355469 13.14179688 53.01195312 14.05703125 53 15 C52.34 15 51.68 15 51 15 C50.65388672 14.18595703 50.65388672 14.18595703 50.30078125 13.35546875 C48.23447953 8.82267248 46.85261301 5.85844754 42 4 C40.11079401 3.61602757 38.21542041 3.2617708 36.31640625 2.9296875 C35.3219751 2.75421387 34.32754395 2.57874023 33.30297852 2.39794922 C32.54299561 2.26662598 31.7830127 2.13530273 31 2 C31.09212871 8.51475058 31.19941507 15.0291234 31.31738281 21.54345703 C31.35573134 23.7608469 31.39057371 25.97830024 31.421875 28.19580078 C31.46739826 31.37816089 31.52541319 34.56008182 31.5859375 37.7421875 C31.59748871 38.73805878 31.60903992 39.73393005 31.62094116 40.75997925 C31.64081085 41.68078278 31.66068054 42.6015863 31.68115234 43.55029297 C31.69447601 44.3630368 31.70779968 45.17578064 31.7215271 46.01315308 C31.82899081 48.23040058 31.82899081 48.23040058 34 50 C36.57061311 50.64767793 36.57061311 50.64767793 39 51 C39 51.66 39 52.32 39 53 C30.42 53 21.84 53 13 53 C13 52.34 13 51.68 13 51 C13.969375 50.71125 14.93875 50.4225 15.9375 50.125 C19.10664203 49.35785318 19.10664203 49.35785318 20 47 C20.11767472 45.5505207 20.17689268 44.09606004 20.20532227 42.64208984 C20.22526749 41.74130707 20.24521271 40.84052429 20.26576233 39.91244507 C20.28247482 38.93844757 20.29918732 37.96445007 20.31640625 36.9609375 C20.33718735 35.96494537 20.35796844 34.96895325 20.37937927 33.94277954 C20.44489042 30.75359146 20.50376704 27.56431942 20.5625 24.375 C20.60568373 22.21613707 20.64929797 20.0572827 20.69335938 17.8984375 C20.80057336 12.5990477 20.90233685 7.29957394 21 2 C18.74572123 2.37069023 16.49655757 2.77257457 14.25 3.1875 C12.99703125 3.40792969 11.7440625 3.62835938 10.453125 3.85546875 C6.44477792 5.18402723 5.23055803 6.48258157 3 10 C1.75983331 12.6794645 1.75983331 12.6794645 1 15 C0.34 15 -0.32 15 -1 15 C-1.02730408 13.43759968 -1.04653226 11.8750573 -1.0625 10.3125 C-1.07410156 9.44238281 -1.08570313 8.57226562 -1.09765625 7.67578125 C-1 5 -1 5 0 0 Z " fill="#222F65" transform="translate(287,180)"/>
<path d="M0 0 C1.32 0 2.64 0 4 0 C4 4.62 4 9.24 4 14 C8.62 14 13.24 14 18 14 C18 14.99 18 15.98 18 17 C13.38 17 8.76 17 4 17 C4.0688879 22.33900229 4.15685957 27.67722223 4.26245117 33.015625 C4.29568436 34.83129189 4.32372134 36.64706168 4.34643555 38.46289062 C4.38001141 41.07466442 4.43232762 43.68549654 4.48828125 46.296875 C4.49467117 47.10743347 4.5010611 47.91799194 4.50764465 48.75311279 C4.5933762 52.04689643 4.77563529 54.57004064 6.31323242 57.51660156 C8.06996373 59.34178852 8.06996373 59.34178852 11.5 59.4375 C15.17874994 58.97765626 15.75653939 58.69215273 18 56 C18.99 56 19.98 56 21 56 C19.60415208 59.37329915 18.07634389 61.04232662 15 63 C9.48562306 64.83812565 3.92827647 64.72310368 -1.5 62.6875 C-4 61 -4 61 -6 58 C-6.24050903 56.0827179 -6.24050903 56.0827179 -6.22705078 53.89575195 C-6.22689972 53.07512772 -6.22674866 52.25450348 -6.22659302 51.40901184 C-6.21627045 50.52767075 -6.20594788 49.64632965 -6.1953125 48.73828125 C-6.1924826 47.83248825 -6.18965271 46.92669525 -6.18673706 45.99345398 C-6.17553964 43.09966842 -6.15043589 40.20619206 -6.125 37.3125 C-6.11496963 35.35091593 -6.10584388 33.389327 -6.09765625 31.42773438 C-6.07560173 26.6183704 -6.04107489 21.80923763 -6 17 C-7.98 17 -9.96 17 -12 17 C-12 16.34 -12 15.68 -12 15 C-11.278125 14.5875 -10.55625 14.175 -9.8125 13.75 C-4.40104482 10.38287233 -1.5989492 6.10507877 0 0 Z " fill="#222F65" transform="translate(184,54)"/>
<path d="M0 0 C2.52230332 0.69859306 2.52230332 0.69859306 6.26171875 0.54296875 C6.26171875 4.83296875 6.26171875 9.12296875 6.26171875 13.54296875 C5.60171875 13.54296875 4.94171875 13.54296875 4.26171875 13.54296875 C4.019375 13.00027344 3.77703125 12.45757812 3.52734375 11.8984375 C1.02047238 6.22578001 1.02047238 6.22578001 -3.73828125 2.54296875 C-6.90737307 2.15491669 -8.84532006 2.00719204 -11.61328125 3.66796875 C-13.31280738 6.50051231 -13.26669446 8.30643782 -12.73828125 11.54296875 C-8.33917699 15.64231821 -3.13284856 18.00532886 2.203125 20.6640625 C5.98885206 22.98964962 8.28014436 25.57981996 10.26171875 29.54296875 C10.81149944 34.55408455 10.82326388 38.43993368 8.51171875 42.98046875 C5.23083598 46.71702969 2.42422149 49.2747486 -2.71875 49.7109375 C-6.71099539 49.74626711 -10.24950426 49.53747244 -14.11328125 48.48046875 C-17.65651897 47.21366525 -17.65651897 47.21366525 -20.73828125 48.54296875 C-20.73828125 42.93296875 -20.73828125 37.32296875 -20.73828125 31.54296875 C-20.07828125 31.54296875 -19.41828125 31.54296875 -18.73828125 31.54296875 C-18.50753906 32.2184375 -18.27679688 32.89390625 -18.0390625 33.58984375 C-15.46551018 40.75366822 -15.46551018 40.75366822 -9.73828125 45.54296875 C-7.29288339 46.61569437 -7.29288339 46.61569437 -4.73828125 46.54296875 C-2.45509745 45.40137685 -0.54815442 44.35284192 1.26171875 42.54296875 C1.76297158 39.21154597 1.76297158 39.21154597 1.26171875 35.54296875 C-2.71492612 30.84873383 -7.51570475 28.01254079 -12.7421875 24.9375 C-16.54986125 22.60376448 -18.92729072 20.66119988 -20.73828125 16.54296875 C-21.60957324 12.02951924 -21.09399124 8.37811395 -19.30078125 4.16796875 C-13.60751547 -1.66415717 -7.61108873 -2.02226995 0 0 Z " fill="#222F65" transform="translate(156.73828125,68.45703125)"/>
<path d="M0 0 C2.54755401 0.67035351 2.54755401 0.67035351 5.41796875 -0.5546875 C5.91296875 6.3753125 5.91296875 6.3753125 6.41796875 13.4453125 C3.41796875 12.4453125 3.41796875 12.4453125 2.390625 10.66796875 C1.78517835 9.23100739 1.18100559 7.7935086 0.578125 6.35546875 C-0.85355171 3.99826366 -2.02399893 3.39972986 -4.58203125 2.4453125 C-7.62433948 1.94520726 -7.62433948 1.94520726 -10.58203125 2.4453125 C-12.6796729 3.96426056 -12.6796729 3.96426056 -13.58203125 6.4453125 C-13.9817618 9.47174833 -13.9817618 9.47174833 -12.58203125 12.4453125 C-9.44597684 15.19139124 -5.72747938 16.91453683 -1.96875 18.65625 C3.54096339 21.21928704 6.66508924 22.93955348 9.41796875 28.4453125 C10.77496903 32.51631334 11.28428681 36.25482952 9.6640625 40.3515625 C7.39643117 44.54890363 5.12202743 47.38300373 0.66796875 49.1328125 C-5.46324737 49.98437029 -10.68066912 49.38851322 -16.6015625 47.78515625 C-18.78376869 47.25026995 -18.78376869 47.25026995 -21.58203125 48.4453125 C-21.58203125 42.8353125 -21.58203125 37.2253125 -21.58203125 31.4453125 C-20.92203125 31.4453125 -20.26203125 31.4453125 -19.58203125 31.4453125 C-19.2675 32.12078125 -18.95296875 32.79625 -18.62890625 33.4921875 C-15.61728869 40.24701736 -15.61728869 40.24701736 -10.58203125 45.4453125 C-7.0553565 46.57084699 -5.26606026 46.68852281 -1.76953125 45.4453125 C0.71061107 43.52308681 0.71061107 43.52308681 1.41796875 40.0703125 C1.41796875 35.90697223 0.91637611 34.70740308 -1.58203125 31.4453125 C-3.8715714 29.9855197 -6.04767803 28.72250721 -8.45703125 27.5078125 C-13.72468371 24.85180668 -17.21205897 22.37744015 -20.58203125 17.4453125 C-21.7604006 12.64400631 -21.03819364 8.49068464 -19.08203125 4.0078125 C-13.2075896 -2.01349019 -7.90057015 -1.93892695 0 0 Z " fill="#222F65" transform="translate(405.58203125,68.5546875)"/>
<path d="M0 0 C0.33 1.65 0.66 3.3 1 5 C1.9075 4.195625 2.815 3.39125 3.75 2.5625 C8.34947561 -1.23287148 12.03700079 -1.31944639 18 -1 C20.375 -0.375 20.375 -0.375 22 1 C22.875 4 22.875 4 23 7 C21 9 21 9 18.75 9.4375 C14.72603688 8.79732405 12.95974963 6.75325547 10 4 C7.51751876 4.33665915 7.51751876 4.33665915 5 6 C1.24329107 12.87579266 1.51545425 20.70391992 1.5625 28.3125 C1.54251953 29.47845703 1.52253906 30.64441406 1.50195312 31.84570312 C1.50259766 32.96525391 1.50324219 34.08480469 1.50390625 35.23828125 C1.50205322 36.24930908 1.5002002 37.26033691 1.49829102 38.30200195 C2.1333518 41.71711474 3.30541795 42.87282683 6 45 C7.485 45.495 7.485 45.495 9 46 C9 46.66 9 47.32 9 48 C0.42 48 -8.16 48 -17 48 C-17 47.34 -17 46.68 -17 46 C-16.05125 45.814375 -15.1025 45.62875 -14.125 45.4375 C-10.76885805 44.31776958 -10.76885805 44.31776958 -9.8203125 41.23046875 C-8.42503918 35.5538787 -8.71125192 29.68075396 -8.75 23.875 C-8.73839844 22.12509766 -8.73839844 22.12509766 -8.7265625 20.33984375 C-8.73042969 18.65181641 -8.73042969 18.65181641 -8.734375 16.9296875 C-8.73663086 15.91116699 -8.73888672 14.89264648 -8.74121094 13.84326172 C-9.01551508 10.82953903 -9.62005828 8.6876567 -11 6 C-12.63495707 4.94895617 -14.29883624 3.94011682 -16 3 C-16 2.34 -16 1.68 -16 1 C-14.0852312 0.63571223 -12.16807707 0.28394694 -10.25 -0.0625 C-9.18265625 -0.25972656 -8.1153125 -0.45695312 -7.015625 -0.66015625 C-4.25228095 -0.97156937 -2.59053383 -0.8991416 0 0 Z " fill="#156DAB" transform="translate(449,126)"/>
<path d="M0 0 C8.25 0 16.5 0 25 0 C25 0.66 25 1.32 25 2 C24.030625 2.433125 23.06125 2.86625 22.0625 3.3125 C18.72268235 4.7014861 18.72268235 4.7014861 18 8 C17.87905593 10.74543048 17.81187345 13.46469271 17.796875 16.2109375 C17.78832489 17.41866318 17.78832489 17.41866318 17.77960205 18.65078735 C17.77016064 20.35376678 17.76362148 22.0567644 17.75976562 23.75976562 C17.75006199 26.35839873 17.71903216 28.95624003 17.6875 31.5546875 C17.68096933 33.21093281 17.67571911 34.86718377 17.671875 36.5234375 C17.6595282 37.29754974 17.6471814 38.07166199 17.63446045 38.86923218 C17.65313636 43.41644129 18.12875316 46.40964028 21 50 C23.08533633 50.87822312 23.08533633 50.87822312 25 51 C25 51.66 25 52.32 25 53 C16.75 53 8.5 53 0 53 C0 52.34 0 51.68 0 51 C2.97 50.505 2.97 50.505 6 50 C7.16815002 45.81785372 7.16195238 41.75186269 7.16796875 37.4375 C7.17129715 36.60919678 7.17462555 35.78089355 7.17805481 34.92749023 C7.18310903 33.17920486 7.1854636 31.43090987 7.18530273 29.68261719 C7.18749213 27.00960438 7.20567154 24.3370025 7.22460938 21.6640625 C7.22754303 19.96354308 7.22952801 18.26302169 7.23046875 16.5625 C7.23765427 15.76448975 7.24483978 14.96647949 7.25224304 14.14428711 C7.28651147 8.73635113 7.28651147 8.73635113 5 4 C2.46229997 2.71745356 2.46229997 2.71745356 0 2 C0 1.34 0 0.68 0 0 Z " fill="#222F65" transform="translate(400,180)"/>
<path d="M0 0 C0.01981934 1.18553467 0.03963867 2.37106934 0.06005859 3.5925293 C0.13625789 8.00029367 0.22495323 12.4077341 0.31738281 16.81518555 C0.35561339 18.72104486 0.39047655 20.62697487 0.421875 22.53295898 C0.46765422 25.27613553 0.5256273 28.01882788 0.5859375 30.76171875 C0.59748871 31.61086349 0.60903992 32.46000824 0.62094116 33.33488464 C0.72671189 37.59586889 0.8627689 41.19176775 3 45 C4.63495707 46.05104383 6.29883624 47.05988318 8 48 C8 48.66 8 49.32 8 50 C-0.25 50 -8.5 50 -17 50 C-16.67 49.01 -16.34 48.02 -16 47 C-13.525 46.505 -13.525 46.505 -11 46 C-9.6041484 40.06972868 -9.77700717 34.14335645 -9.75976562 28.08007812 C-9.75002867 26.0061071 -9.71895009 23.93311534 -9.6875 21.859375 C-9.68234375 20.54453125 -9.6771875 19.2296875 -9.671875 17.875 C-9.6625293 16.67617187 -9.65318359 15.47734375 -9.64355469 14.2421875 C-10.03332089 10.69691684 -10.85144306 8.81973756 -13 6 C-15.08533633 5.12177688 -15.08533633 5.12177688 -17 5 C-17 4.01 -17 3.02 -17 2 C-14.35425814 1.66592662 -11.70841381 1.33270624 -9.0625 1 C-8.30775391 0.90460938 -7.55300781 0.80921875 -6.77539062 0.7109375 C-1.11328125 0 -1.11328125 0 0 0 Z " fill="#222F65" transform="translate(370,67)"/>
<path d="M0 0 C1.30078125 1.671875 1.30078125 1.671875 2.3125 3.75 C2.65925781 4.42546875 3.00601563 5.1009375 3.36328125 5.796875 C4.18763475 8.64923927 3.94429697 10.18896781 3 13 C1.29296875 15.24609375 1.29296875 15.24609375 -0.8125 17.4375 C-3.95195541 20.80804638 -6.5894998 24.08293718 -9 28 C-13.38330612 26.69281227 -17.00705491 24.99961987 -20.875 22.5625 C-21.84179688 21.96566406 -22.80859375 21.36882812 -23.8046875 20.75390625 C-24.52914062 20.17511719 -25.25359375 19.59632813 -26 19 C-26 14.7282083 -23.99557255 13.20904537 -21.203125 10.1328125 C-16.39781806 5.48086642 -7.18683046 -3.37122111 0 0 Z " fill="#1A70AD" transform="translate(557,186)"/>
<path d="M0 0 C3.99192294 1.47848998 7.5716593 3.36185122 11.25 5.5 C12.30703125 6.1084375 13.3640625 6.716875 14.453125 7.34375 C17 9 17 9 18 11 C17.48681641 12.72412109 17.48681641 12.72412109 16.6015625 14.7734375 C16.28703125 15.5159375 15.9725 16.2584375 15.6484375 17.0234375 C15.14183594 18.18746094 15.14183594 18.18746094 14.625 19.375 C13.96885964 20.90257677 13.31513064 22.43119202 12.6640625 23.9609375 C12.36967285 24.63946777 12.0752832 25.31799805 11.77197266 26.01708984 C11.00295886 27.99239979 10.46800503 29.9346609 10 32 C7.85423363 32.02685938 5.70837355 32.04633088 3.5625 32.0625 C2.36753906 32.07410156 1.17257812 32.08570313 -0.05859375 32.09765625 C-3 32 -3 32 -4 31 C-5.05653588 20.40549543 -4.93891805 9.6132512 0 0 Z " fill="#1A70AC" transform="translate(527,208)"/>
<path d="M0 0 C7.0625474 0.65075828 12.31823345 4.28541826 18.3125 7.8125 C19.42173828 8.44220703 20.53097656 9.07191406 21.67382812 9.72070312 C22.72634766 10.33494141 23.77886719 10.94917969 24.86328125 11.58203125 C25.82532471 12.14124268 26.78736816 12.7004541 27.77856445 13.27661133 C30 15 30 15 30.89916992 17.07299805 C31 19 31 19 29.75 21.25 C29.1725 21.8275 28.595 22.405 28 23 C27.01 23 26.02 23 25 23 C24.73960937 23.69480469 24.47921875 24.38960937 24.2109375 25.10546875 C22.87140395 28.30738603 21.31906058 31.28316459 19.625 34.3125 C19.03976562 35.38113281 18.45453125 36.44976562 17.8515625 37.55078125 C16.93503906 38.76314453 16.93503906 38.76314453 16 40 C14.68 40 13.36 40 12 40 C13.7683226 35.28447308 16.15696192 31.07638902 18.66015625 26.71875 C19.95381213 24.09372234 20.57724597 21.88099046 21 19 C20.21625 18.79375 19.4325 18.5875 18.625 18.375 C14.48477412 16.8045695 11.06705666 14.65113658 7.3671875 12.2421875 C4.8552269 10.69022529 4.8552269 10.69022529 1 11 C-1.97 16.28 -4.94 21.56 -8 27 C-9.32 26.67 -10.64 26.34 -12 26 C-11.06506561 24.10290012 -10.12693704 22.20737422 -9.1875 20.3125 C-8.66542969 19.25675781 -8.14335938 18.20101562 -7.60546875 17.11328125 C-6 14 -6 14 -4.37109375 11.37109375 C-3.05784243 9.10002951 -2.40998999 7.29849776 -1.875 4.75 C-1 1 -1 1 0 0 Z " fill="#F8FCFE" transform="translate(593,30)"/>
<path d="M0 0 C4.14032846 1.54385129 7.93553053 3.51028938 11.8125 5.625 C12.40998047 5.94984375 13.00746094 6.2746875 13.62304688 6.609375 C15.08337135 7.40379151 16.54187491 8.20155376 18 9 C16.55339896 13.25425145 14.43727963 16.32284405 11.625 19.8125 C10.85414063 20.78832031 10.08328125 21.76414063 9.2890625 22.76953125 C7 25 7 25 3 25 C0.96484375 23.3203125 0.96484375 23.3203125 -1.0625 21.125 C-3.34208164 18.68352869 -5.19990931 16.86672713 -8 15 C-6.62712658 11.30123909 -4.93644547 8.0485524 -2.875 4.6875 C-2.33617187 3.80449219 -1.79734375 2.92148438 -1.2421875 2.01171875 C-0.83226562 1.34785156 -0.42234375 0.68398437 0 0 Z " fill="#1B70AD" transform="translate(570,233)"/>
<path d="M0 0 C4.6182583 0.54792895 7.98149647 2.58964488 11.8125 5.0625 C12.40998047 5.43955078 13.00746094 5.81660156 13.62304688 6.20507812 C15.08636577 7.12989566 16.54379523 8.06402065 18 9 C16.7750259 13.1030686 15.32179479 16.36438139 12.875 19.875 C12.33617187 20.65617187 11.79734375 21.43734375 11.2421875 22.2421875 C10.83226562 22.82226562 10.42234375 23.40234375 10 24 C9.35933594 23.80664062 8.71867188 23.61328125 8.05859375 23.4140625 C3.04889015 21.9059252 -1.96539857 20.42282214 -7 19 C-5.17778624 12.38757278 -2.94776396 6.19479329 0 0 Z " fill="#1A70AD" transform="translate(548,221)"/>
<path d="M0 0 C1.08667969 0.41572266 1.08667969 0.41572266 2.1953125 0.83984375 C9.42755647 3.55621227 9.42755647 3.55621227 17 5 C15.27068234 12.00897689 13.16032658 18.50288191 10 25 C6.03363329 23.51353233 2.38379836 21.69203865 -1.3125 19.625 C-2.38113281 19.03976563 -3.44976563 18.45453125 -4.55078125 17.8515625 C-5.76314453 16.93503906 -5.76314453 16.93503906 -7 16 C-7 11.60714704 -6.18765403 10.05777145 -4.0625 6.3125 C-3.51722656 5.33925781 -2.97195313 4.36601562 -2.41015625 3.36328125 C-1 1 -1 1 0 0 Z " fill="#1A70AC" transform="translate(581,214)"/>
<path d="M0 0 C0.66 0.70125 1.32 1.4025 2 2.125 C5.34985941 5.49416695 9.15652564 8.22468725 13 11 C11.51194289 16.80342274 8.40902445 21.17590879 5 26 C0.53817564 24.68925635 -2.99618757 22.92933989 -6.875 20.375 C-7.84179688 19.74335938 -8.80859375 19.11171875 -9.8046875 18.4609375 C-10.52914062 17.97882813 -11.25359375 17.49671875 -12 17 C-11.38985928 13.42050775 -9.93889988 11.31545509 -7.6875 8.5 C-6.79611328 7.37078125 -6.79611328 7.37078125 -5.88671875 6.21875 C-4.02287713 4.02690313 -2.06306335 2.00385844 0 0 Z " fill="#196FAC" transform="translate(564,200)"/>
<path d="M0 0 C3 1 3 1 4.6875 3.6875 C6.97909186 9.42247859 6.40840505 15.94460967 6 22 C5.67 22.66 5.34 23.32 5 24 C3.24871182 23.71617054 1.49899997 23.42260471 -0.25 23.125 C-1.71179688 22.88136719 -1.71179688 22.88136719 -3.203125 22.6328125 C-5.77264117 22.05144152 -7.72071056 21.29159735 -10 20 C-9.46323088 14.9738891 -7.05581499 11.37760591 -4.4375 7.1875 C-4.01275391 6.49462891 -3.58800781 5.80175781 -3.15039062 5.08789062 C-2.10690544 3.38783049 -1.05434704 1.69334524 0 0 Z " fill="#1E72AE" transform="translate(594,191)"/>
<path d="M0 0 C0.89203125 0.01804688 1.7840625 0.03609375 2.703125 0.0546875 C3.71632813 0.08949219 3.71632813 0.08949219 4.75 0.125 C1.57819865 6.84753472 -1.97500877 13.04305372 -6.25 19.125 C-10.62679813 18.25342981 -13.02229792 16.2123672 -16.25 13.125 C-17.4296875 10.453125 -17.4296875 10.453125 -18.25 8.125 C-16.83531689 7.16374097 -15.4181636 6.20611675 -14 5.25 C-13.21109375 4.71632812 -12.4221875 4.18265625 -11.609375 3.6328125 C-7.48399808 0.99639612 -4.96712554 -0.13071383 0 0 Z " fill="#1B71AD" transform="translate(586.25,187.875)"/>
<path d="M0 0 C2.7912125 1.98322993 3.82597224 3.12986121 4.5 6.5 C3.82597224 9.87013879 2.7912125 11.01677007 0 13 C-3.70758991 13.61793165 -5.2935202 13.50197249 -8.375 11.3125 C-10 9 -10 9 -10.5 6.5 C-9.33827182 0.69135908 -5.5534724 -0.92557873 0 0 Z " fill="#2074AF" transform="translate(629,227)"/>
<path d="M0 0 C5.69139902 1.09698167 10.74567937 2.54053077 16 5 C14.35 7.97 12.7 10.94 11 14 C9.37258256 13.21331482 7.74813869 12.4204759 6.125 11.625 C4.76761719 10.96371094 4.76761719 10.96371094 3.3828125 10.2890625 C1 9 1 9 -1 7 C-0.625 3.375 -0.625 3.375 0 0 Z " fill="#1D72AD" transform="translate(540,244)"/>
<path d="M0 0 C5.32697239 1.45281065 8.36402802 5.08111378 12 9 C11.03840858 11.40397854 10.24536943 12.80477128 8.203125 14.4296875 C6 15 6 15 3.421875 13.8828125 C2.09929688 13.01269531 2.09929688 13.01269531 0.75 12.125 C-0.14203125 11.55007813 -1.0340625 10.97515625 -1.953125 10.3828125 C-2.62859375 9.92648437 -3.3040625 9.47015625 -4 9 C-3.23596585 5.52846619 -1.91813089 3.00229182 0 0 Z " fill="#186EAC" transform="translate(559,252)"/>
<path d="M0 0 C4.3561966 3.48495728 5.87378843 4.93083848 8.3125 9.5625 C8.82425781 10.51253906 9.33601562 11.46257812 9.86328125 12.44140625 C11 15 11 15 11 18 C7.7 18 4.4 18 1 18 C0.67 12.06 0.34 6.12 0 0 Z " fill="#1F73AE" transform="translate(603,197)"/>
<path d="M0 0 C6.6 0 13.2 0 20 0 C20 0.66 20 1.32 20 2 C18.824375 2.391875 17.64875 2.78375 16.4375 3.1875 C13.3110876 4.34255112 10.80178135 5.70386413 8.125 7.6875 C5 10 5 10 3 10 C0.96564469 6.27034861 0 4.33094958 0 0 Z " fill="#2074AF" transform="translate(561,183)"/>
<path d="M0 0 C0.66 0 1.32 0 2 0 C1.44910185 4.98707801 -0.87507754 8.56087925 -3.4375 12.75 C-4.34429825 14.25487811 -5.25053087 15.76009717 -6.15625 17.265625 C-6.62417969 18.03970703 -7.09210937 18.81378906 -7.57421875 19.61132812 C-9.00667321 22.01117992 -10.39927348 24.43014998 -11.78125 26.859375 C-12.22670166 27.63700195 -12.67215332 28.41462891 -13.13110352 29.21582031 C-13.98953255 30.71674762 -14.84178777 32.221226 -15.68725586 33.72949219 C-18.66356489 38.88785496 -18.66356489 38.88785496 -22 40 C-20.65669596 36.45003797 -19.08248512 33.20051316 -17.20703125 29.90234375 C-16.66216064 28.94078369 -16.11729004 27.97922363 -15.5559082 26.98852539 C-14.9805835 25.98168701 -14.40525879 24.97484863 -13.8125 23.9375 C-13.22750732 22.91068115 -12.64251465 21.8838623 -12.03979492 20.82592773 C-10.88343807 18.79816939 -9.72568165 16.77120841 -8.56640625 14.74511719 C-7.25249483 12.44249561 -5.95037189 10.13408097 -4.65625 7.8203125 C-4.0478125 6.74523437 -3.439375 5.67015625 -2.8125 4.5625 C-2.30332031 3.65628906 -1.79414062 2.75007813 -1.26953125 1.81640625 C-0.85058594 1.21699219 -0.43164062 0.61757812 0 0 Z " fill="#ECF8FC" transform="translate(582,82)"/>
<path d="M0 0 C0.99 0.33 1.98 0.66 3 1 C-10.80074803 25.88731016 -10.80074803 25.88731016 -15.75 34.0625 C-16.34296875 35.04347656 -16.9359375 36.02445313 -17.546875 37.03515625 C-18.26617188 38.00775391 -18.26617188 38.00775391 -19 39 C-19.66 39 -20.32 39 -21 39 C-19.7263797 34.81172642 -18.15068846 31.24155204 -15.91796875 27.48046875 C-15.31533203 26.45759766 -14.71269531 25.43472656 -14.09179688 24.38085938 C-13.46337891 23.32705078 -12.83496094 22.27324219 -12.1875 21.1875 C-10.9509569 19.09816855 -9.71526611 17.00833241 -8.48046875 14.91796875 C-7.89056152 13.92071777 -7.3006543 12.9234668 -6.69287109 11.89599609 C-4.39590281 7.96657039 -2.18124203 3.99461711 0 0 Z " fill="#EDF8FC" transform="translate(570,76)"/>
<path d="M0 0 C3.5 0.25 3.5 0.25 5.5 2.25 C5.75 5.25 5.75 5.25 5.5 8.25 C3.5 10.25 3.5 10.25 0 10.5 C-3.5 10.25 -3.5 10.25 -5.5 8.25 C-5.75 5.25 -5.75 5.25 -5.5 2.25 C-3.5 0.25 -3.5 0.25 0 0 Z " fill="#222F65" transform="translate(365.5,37.75)"/>
<path d="M0 0 C1 3 1 3 -0.27587891 5.78393555 C-0.91960449 6.890354 -1.56333008 7.99677246 -2.2265625 9.13671875 C-2.5712558 9.73498978 -2.9159491 10.3332608 -3.27108765 10.94966125 C-4.37960451 12.86793856 -5.50218698 14.77756281 -6.625 16.6875 C-7.35897592 17.95455547 -8.09205906 19.22212855 -8.82421875 20.49023438 C-10.86018037 24.0071511 -12.92607859 27.50533172 -15 31 C-15.77682129 32.32572021 -15.77682129 32.32572021 -16.56933594 33.67822266 C-17.65480767 35.48827269 -18.8171141 37.25205522 -20 39 C-20.66 39 -21.32 39 -22 39 C-20.72720358 34.82579581 -19.15967241 31.24144883 -16.953125 27.48046875 C-16.355 26.45759766 -15.756875 25.43472656 -15.140625 24.38085938 C-14.51671875 23.32705078 -13.8928125 22.27324219 -13.25 21.1875 C-12.33734375 19.62418945 -12.33734375 19.62418945 -11.40625 18.02929688 C-7.79465612 11.8826419 -4.03557084 5.87728911 0 0 Z " fill="#EEF9FC" transform="translate(594,89)"/>
<path d="M0 0 C0.99 0.33 1.98 0.66 3 1 C1.2204041 4.17359789 -0.57561748 7.33758523 -2.375 10.5 C-3.13683594 11.85931641 -3.13683594 11.85931641 -3.9140625 13.24609375 C-4.40390625 14.10332031 -4.89375 14.96054688 -5.3984375 15.84375 C-5.84880371 16.63974609 -6.29916992 17.43574219 -6.76318359 18.25585938 C-7.17133301 18.83142578 -7.57948242 19.40699219 -8 20 C-8.66 20 -9.32 20 -10 20 C-10.60963656 13.17207056 -9.31837806 9.33031407 -5 4 C-2.375 1.4375 -2.375 1.4375 0 0 Z " fill="#7CD2EE" transform="translate(550,77)"/>
<path d="M0 0 C0.66 0 1.32 0 2 0 C3.0625 1.8125 3.0625 1.8125 4 4 C3.67 4.99 3.34 5.98 3 7 C1.35 6.01 -0.3 5.02 -2 4 C-1.34 2.68 -0.68 1.36 0 0 Z " fill="#2879B2" transform="translate(573,266)"/>
<path d="M0 0 C2.31 0 4.62 0 7 0 C7 1.65 7 3.3 7 5 C3.535 3.02 3.535 3.02 0 1 C0 0.67 0 0.34 0 0 Z " fill="#196FAC" transform="translate(528,244)"/>
</svg>
